<mxfile host="65bd71144e" modified="2021-01-23T04:36:51.901Z" agent="5.0 (Macintosh; Intel Mac OS X 10_15_6) AppleWebKit/537.36 (KHTML, like Gecko) Code/1.52.1 Chrome/83.0.4103.122 Electron/9.3.5 Safari/537.36" etag="G91CBjtYwe73l9wRNm51" version="13.10.0" type="embed">
    <diagram id="9QSZjtaHtTjX9SuiS_IQ" name="Jetpack-Navigation">
        <mxGraphModel dx="1865" dy="1433" grid="1" gridSize="10" guides="1" tooltips="1" connect="1" arrows="1" fold="1" page="1" pageScale="1" pageWidth="827" pageHeight="1169" math="0" shadow="0">
            <root>
                <mxCell id="0"/>
                <mxCell id="1" parent="0"/>
                <mxCell id="8" value="NavigatorProvider" style="swimlane;fontStyle=1;align=center;verticalAlign=top;childLayout=stackLayout;horizontal=1;startSize=26;horizontalStack=0;resizeParent=1;resizeParentMax=0;resizeLast=0;collapsible=1;marginBottom=0;" parent="1" vertex="1">
                    <mxGeometry x="188" y="10" width="430" height="140" as="geometry"/>
                </mxCell>
                <mxCell id="9" value="mNavigators:HashMap&lt;String, Navigator&lt;? extends NavDestination&gt;&gt;&#10;&#10;sAnnotationNames:HashMap&lt;Class&lt;?&gt;, String&gt; &#10;&#10;" style="text;strokeColor=none;fillColor=none;align=left;verticalAlign=top;spacingLeft=4;spacingRight=4;overflow=hidden;rotatable=0;points=[[0,0.5],[1,0.5]];portConstraint=eastwest;" parent="8" vertex="1">
                    <mxGeometry y="26" width="430" height="54" as="geometry"/>
                </mxCell>
                <mxCell id="10" value="" style="line;strokeWidth=1;fillColor=none;align=left;verticalAlign=middle;spacingTop=-1;spacingLeft=3;spacingRight=3;rotatable=0;labelPosition=right;points=[];portConstraint=eastwest;" parent="8" vertex="1">
                    <mxGeometry y="80" width="430" height="8" as="geometry"/>
                </mxCell>
                <mxCell id="11" value="addNavigator&#10;getNavigator" style="text;strokeColor=none;fillColor=none;align=left;verticalAlign=top;spacingLeft=4;spacingRight=4;overflow=hidden;rotatable=0;points=[[0,0.5],[1,0.5]];portConstraint=eastwest;" parent="8" vertex="1">
                    <mxGeometry y="88" width="430" height="52" as="geometry"/>
                </mxCell>
                <mxCell id="16" style="edgeStyle=orthogonalEdgeStyle;rounded=0;orthogonalLoop=1;jettySize=auto;html=1;entryX=0.221;entryY=1.019;entryDx=0;entryDy=0;entryPerimeter=0;" parent="1" target="11" edge="1">
                    <mxGeometry relative="1" as="geometry">
                        <mxPoint x="284" y="130" as="targetPoint"/>
                        <mxPoint x="283.02999999999975" y="200" as="sourcePoint"/>
                    </mxGeometry>
                </mxCell>
                <mxCell id="17" value="hold" style="edgeLabel;html=1;align=center;verticalAlign=middle;resizable=0;points=[];" parent="16" vertex="1" connectable="0">
                    <mxGeometry x="0.1739" y="-2" relative="1" as="geometry">
                        <mxPoint as="offset"/>
                    </mxGeometry>
                </mxCell>
                <mxCell id="12" value="NavController" style="swimlane;fontStyle=1;align=center;verticalAlign=top;childLayout=stackLayout;horizontal=1;startSize=26;horizontalStack=0;resizeParent=1;resizeParentMax=0;resizeLast=0;collapsible=1;marginBottom=0;fillColor=#a20025;strokeColor=#6F0000;fontColor=#ffffff;" parent="1" vertex="1">
                    <mxGeometry x="160" y="200" width="290" height="190" as="geometry"/>
                </mxCell>
                <mxCell id="13" value="mNavigatorProvider：NavigatorProvider&#10;mGraph：NavGraph extends NavDestination&#10;mInflater：NavInflater&#10;mBackStack：Deque&lt;NavBackStackEntry&gt;&#10;mNavigatorProvider：NavigatorProvider&#10;" style="text;strokeColor=none;fillColor=none;align=left;verticalAlign=top;spacingLeft=4;spacingRight=4;overflow=hidden;rotatable=0;points=[[0,0.5],[1,0.5]];portConstraint=eastwest;" parent="12" vertex="1">
                    <mxGeometry y="26" width="290" height="94" as="geometry"/>
                </mxCell>
                <mxCell id="14" value="" style="line;strokeWidth=1;fillColor=none;align=left;verticalAlign=middle;spacingTop=-1;spacingLeft=3;spacingRight=3;rotatable=0;labelPosition=right;points=[];portConstraint=eastwest;" parent="12" vertex="1">
                    <mxGeometry y="120" width="290" height="20" as="geometry"/>
                </mxCell>
                <mxCell id="15" value="setGraph&#10;restoreState" style="text;strokeColor=none;fillColor=none;align=left;verticalAlign=top;spacingLeft=4;spacingRight=4;overflow=hidden;rotatable=0;points=[[0,0.5],[1,0.5]];portConstraint=eastwest;" parent="12" vertex="1">
                    <mxGeometry y="140" width="290" height="50" as="geometry"/>
                </mxCell>
                <mxCell id="31" value="Extends" style="endArrow=block;endSize=16;endFill=0;html=1;exitX=0.5;exitY=0;exitDx=0;exitDy=0;entryX=0.424;entryY=0.769;entryDx=0;entryDy=0;entryPerimeter=0;" parent="1" source="27" edge="1" target="15">
                    <mxGeometry width="160" relative="1" as="geometry">
                        <mxPoint x="128" y="440" as="sourcePoint"/>
                        <mxPoint x="283" y="380" as="targetPoint"/>
                    </mxGeometry>
                </mxCell>
                <mxCell id="100" style="edgeStyle=orthogonalEdgeStyle;rounded=0;orthogonalLoop=1;jettySize=auto;html=1;exitX=0.75;exitY=0;exitDx=0;exitDy=0;entryX=0.813;entryY=1.088;entryDx=0;entryDy=0;entryPerimeter=0;" edge="1" parent="1" source="32" target="109">
                    <mxGeometry relative="1" as="geometry">
                        <mxPoint x="-81" y="170" as="targetPoint"/>
                        <Array as="points">
                            <mxPoint x="-82" y="343"/>
                            <mxPoint x="-87" y="343"/>
                        </Array>
                    </mxGeometry>
                </mxCell>
                <mxCell id="101" value="delegate" style="edgeLabel;html=1;align=center;verticalAlign=middle;resizable=0;points=[];" vertex="1" connectable="0" parent="100">
                    <mxGeometry x="-0.1476" y="-3" relative="1" as="geometry">
                        <mxPoint as="offset"/>
                    </mxGeometry>
                </mxCell>
                <mxCell id="32" value="NavDestination" style="swimlane;fontStyle=1;align=center;verticalAlign=top;childLayout=stackLayout;horizontal=1;startSize=26;horizontalStack=0;resizeParent=1;resizeParentMax=0;resizeLast=0;collapsible=1;marginBottom=0;fillColor=#a20025;strokeColor=#6F0000;fontColor=#ffffff;" parent="1" vertex="1">
                    <mxGeometry x="-202" y="545.71" width="160" height="86" as="geometry"/>
                </mxCell>
                <mxCell id="33" value="mParent:NavGraph" style="text;strokeColor=none;fillColor=none;align=left;verticalAlign=top;spacingLeft=4;spacingRight=4;overflow=hidden;rotatable=0;points=[[0,0.5],[1,0.5]];portConstraint=eastwest;" parent="32" vertex="1">
                    <mxGeometry y="26" width="160" height="26" as="geometry"/>
                </mxCell>
                <mxCell id="34" value="" style="line;strokeWidth=1;fillColor=none;align=left;verticalAlign=middle;spacingTop=-1;spacingLeft=3;spacingRight=3;rotatable=0;labelPosition=right;points=[];portConstraint=eastwest;" parent="32" vertex="1">
                    <mxGeometry y="52" width="160" height="8" as="geometry"/>
                </mxCell>
                <mxCell id="35" value="+ method(type): type" style="text;strokeColor=none;fillColor=none;align=left;verticalAlign=top;spacingLeft=4;spacingRight=4;overflow=hidden;rotatable=0;points=[[0,0.5],[1,0.5]];portConstraint=eastwest;" parent="32" vertex="1">
                    <mxGeometry y="60" width="160" height="26" as="geometry"/>
                </mxCell>
                <mxCell id="36" value="NavGraph" style="swimlane;fontStyle=1;align=center;verticalAlign=top;childLayout=stackLayout;horizontal=1;startSize=26;horizontalStack=0;resizeParent=1;resizeParentMax=0;resizeLast=0;collapsible=1;marginBottom=0;" parent="1" vertex="1">
                    <mxGeometry x="-522" y="847.7099999999999" width="160" height="86" as="geometry"/>
                </mxCell>
                <mxCell id="37" value="+ field: type" style="text;strokeColor=none;fillColor=none;align=left;verticalAlign=top;spacingLeft=4;spacingRight=4;overflow=hidden;rotatable=0;points=[[0,0.5],[1,0.5]];portConstraint=eastwest;" parent="36" vertex="1">
                    <mxGeometry y="26" width="160" height="26" as="geometry"/>
                </mxCell>
                <mxCell id="38" value="" style="line;strokeWidth=1;fillColor=none;align=left;verticalAlign=middle;spacingTop=-1;spacingLeft=3;spacingRight=3;rotatable=0;labelPosition=right;points=[];portConstraint=eastwest;" parent="36" vertex="1">
                    <mxGeometry y="52" width="160" height="8" as="geometry"/>
                </mxCell>
                <mxCell id="39" value="+ method(type): type" style="text;strokeColor=none;fillColor=none;align=left;verticalAlign=top;spacingLeft=4;spacingRight=4;overflow=hidden;rotatable=0;points=[[0,0.5],[1,0.5]];portConstraint=eastwest;" parent="36" vertex="1">
                    <mxGeometry y="60" width="160" height="26" as="geometry"/>
                </mxCell>
                <mxCell id="40" value="Extends" style="endArrow=block;endSize=16;endFill=0;html=1;exitX=1;exitY=0.5;exitDx=0;exitDy=0;" parent="1" source="37" target="35" edge="1">
                    <mxGeometry width="160" relative="1" as="geometry">
                        <mxPoint x="-112" y="497.21000000000004" as="sourcePoint"/>
                        <mxPoint x="-192" y="647.2099999999999" as="targetPoint"/>
                        <Array as="points">
                            <mxPoint x="-122" y="886.7099999999999"/>
                        </Array>
                    </mxGeometry>
                </mxCell>
                <mxCell id="52" value="ActivityNavigator.Destination" style="swimlane;fontStyle=1;align=center;verticalAlign=top;childLayout=stackLayout;horizontal=1;startSize=26;horizontalStack=0;resizeParent=1;resizeParentMax=0;resizeLast=0;collapsible=1;marginBottom=0;" parent="1" vertex="1">
                    <mxGeometry x="-552" y="477.71000000000004" width="240" height="86" as="geometry"/>
                </mxCell>
                <mxCell id="53" value="Activity mHostActivity" style="text;strokeColor=none;fillColor=none;align=left;verticalAlign=top;spacingLeft=4;spacingRight=4;overflow=hidden;rotatable=0;points=[[0,0.5],[1,0.5]];portConstraint=eastwest;" parent="52" vertex="1">
                    <mxGeometry y="26" width="240" height="26" as="geometry"/>
                </mxCell>
                <mxCell id="54" value="" style="line;strokeWidth=1;fillColor=none;align=left;verticalAlign=middle;spacingTop=-1;spacingLeft=3;spacingRight=3;rotatable=0;labelPosition=right;points=[];portConstraint=eastwest;" parent="52" vertex="1">
                    <mxGeometry y="52" width="240" height="8" as="geometry"/>
                </mxCell>
                <mxCell id="55" value="Context mContext" style="text;strokeColor=none;fillColor=none;align=left;verticalAlign=top;spacingLeft=4;spacingRight=4;overflow=hidden;rotatable=0;points=[[0,0.5],[1,0.5]];portConstraint=eastwest;" parent="52" vertex="1">
                    <mxGeometry y="60" width="240" height="26" as="geometry"/>
                </mxCell>
                <mxCell id="56" value="FragmentNavigator.Destination" style="swimlane;fontStyle=1;align=center;verticalAlign=top;childLayout=stackLayout;horizontal=1;startSize=26;horizontalStack=0;resizeParent=1;resizeParentMax=0;resizeLast=0;collapsible=1;marginBottom=0;" parent="1" vertex="1">
                    <mxGeometry x="-552" y="617.7099999999999" width="240" height="86" as="geometry"/>
                </mxCell>
                <mxCell id="57" value="FragmentManager mFragmentManager" style="text;strokeColor=none;fillColor=none;align=left;verticalAlign=top;spacingLeft=4;spacingRight=4;overflow=hidden;rotatable=0;points=[[0,0.5],[1,0.5]];portConstraint=eastwest;" parent="56" vertex="1">
                    <mxGeometry y="26" width="240" height="26" as="geometry"/>
                </mxCell>
                <mxCell id="58" value="" style="line;strokeWidth=1;fillColor=none;align=left;verticalAlign=middle;spacingTop=-1;spacingLeft=3;spacingRight=3;rotatable=0;labelPosition=right;points=[];portConstraint=eastwest;" parent="56" vertex="1">
                    <mxGeometry y="52" width="240" height="8" as="geometry"/>
                </mxCell>
                <mxCell id="59" value="int mContainerId" style="text;strokeColor=none;fillColor=none;align=left;verticalAlign=top;spacingLeft=4;spacingRight=4;overflow=hidden;rotatable=0;points=[[0,0.5],[1,0.5]];portConstraint=eastwest;" parent="56" vertex="1">
                    <mxGeometry y="60" width="240" height="26" as="geometry"/>
                </mxCell>
                <mxCell id="60" value="DialogFragmentNavigator.Destination" style="swimlane;fontStyle=1;align=center;verticalAlign=top;childLayout=stackLayout;horizontal=1;startSize=26;horizontalStack=0;resizeParent=1;resizeParentMax=0;resizeLast=0;collapsible=1;marginBottom=0;" parent="1" vertex="1">
                    <mxGeometry x="-552" y="737.7099999999999" width="250" height="86" as="geometry">
                        <mxRectangle x="570" y="720" width="250" height="26" as="alternateBounds"/>
                    </mxGeometry>
                </mxCell>
                <mxCell id="61" value="FragmentManager mFragmentManager" style="text;strokeColor=none;fillColor=none;align=left;verticalAlign=top;spacingLeft=4;spacingRight=4;overflow=hidden;rotatable=0;points=[[0,0.5],[1,0.5]];portConstraint=eastwest;" parent="60" vertex="1">
                    <mxGeometry y="26" width="250" height="26" as="geometry"/>
                </mxCell>
                <mxCell id="62" value="" style="line;strokeWidth=1;fillColor=none;align=left;verticalAlign=middle;spacingTop=-1;spacingLeft=3;spacingRight=3;rotatable=0;labelPosition=right;points=[];portConstraint=eastwest;" parent="60" vertex="1">
                    <mxGeometry y="52" width="250" height="8" as="geometry"/>
                </mxCell>
                <mxCell id="63" value="int mDialogCount" style="text;strokeColor=none;fillColor=none;align=left;verticalAlign=top;spacingLeft=4;spacingRight=4;overflow=hidden;rotatable=0;points=[[0,0.5],[1,0.5]];portConstraint=eastwest;" parent="60" vertex="1">
                    <mxGeometry y="60" width="250" height="26" as="geometry"/>
                </mxCell>
                <mxCell id="82" value="NavInflater" style="swimlane;fontStyle=1;align=center;verticalAlign=top;childLayout=stackLayout;horizontal=1;startSize=26;horizontalStack=0;resizeParent=1;resizeParentMax=0;resizeLast=0;collapsible=1;marginBottom=0;" parent="1" vertex="1">
                    <mxGeometry x="70" y="820" width="160" height="86" as="geometry"/>
                </mxCell>
                <mxCell id="83" value="mNavigatorProvider" style="text;strokeColor=none;fillColor=none;align=left;verticalAlign=top;spacingLeft=4;spacingRight=4;overflow=hidden;rotatable=0;points=[[0,0.5],[1,0.5]];portConstraint=eastwest;" parent="82" vertex="1">
                    <mxGeometry y="26" width="160" height="26" as="geometry"/>
                </mxCell>
                <mxCell id="84" value="" style="line;strokeWidth=1;fillColor=none;align=left;verticalAlign=middle;spacingTop=-1;spacingLeft=3;spacingRight=3;rotatable=0;labelPosition=right;points=[];portConstraint=eastwest;" parent="82" vertex="1">
                    <mxGeometry y="52" width="160" height="8" as="geometry"/>
                </mxCell>
                <mxCell id="85" value="inflate" style="text;strokeColor=none;fillColor=none;align=left;verticalAlign=top;spacingLeft=4;spacingRight=4;overflow=hidden;rotatable=0;points=[[0,0.5],[1,0.5]];portConstraint=eastwest;" parent="82" vertex="1">
                    <mxGeometry y="60" width="160" height="26" as="geometry"/>
                </mxCell>
                <mxCell id="90" style="edgeStyle=orthogonalEdgeStyle;rounded=0;orthogonalLoop=1;jettySize=auto;html=1;entryX=1;entryY=0.5;entryDx=0;entryDy=0;" parent="1" source="10" target="109" edge="1">
                    <mxGeometry relative="1" as="geometry">
                        <mxPoint x="-10" y="96" as="targetPoint"/>
                    </mxGeometry>
                </mxCell>
                <mxCell id="91" value="持有间接" style="edgeLabel;html=1;align=center;verticalAlign=middle;resizable=0;points=[];" parent="90" vertex="1" connectable="0">
                    <mxGeometry x="-0.1899" y="1" relative="1" as="geometry">
                        <mxPoint as="offset"/>
                    </mxGeometry>
                </mxCell>
                <mxCell id="93" value="Extends" style="endArrow=block;endSize=16;endFill=0;html=1;exitX=1;exitY=0.5;exitDx=0;exitDy=0;entryX=0.26;entryY=1.049;entryDx=0;entryDy=0;entryPerimeter=0;" edge="1" parent="1" source="61" target="35">
                    <mxGeometry width="160" relative="1" as="geometry">
                        <mxPoint x="-352" y="896.7099999999999" as="sourcePoint"/>
                        <mxPoint x="-112" y="641.7099999999999" as="targetPoint"/>
                        <Array as="points">
                            <mxPoint x="-162" y="776.7099999999999"/>
                        </Array>
                    </mxGeometry>
                </mxCell>
                <mxCell id="94" value="Extends" style="endArrow=block;endSize=16;endFill=0;html=1;exitX=1;exitY=0.5;exitDx=0;exitDy=0;" edge="1" parent="1" source="53">
                    <mxGeometry width="160" relative="1" as="geometry">
                        <mxPoint x="-342" y="906.7099999999999" as="sourcePoint"/>
                        <mxPoint x="-122" y="547.71" as="targetPoint"/>
                        <Array as="points">
                            <mxPoint x="-122" y="517.71"/>
                        </Array>
                    </mxGeometry>
                </mxCell>
                <mxCell id="95" value="Extends" style="endArrow=block;endSize=16;endFill=0;html=1;entryX=0;entryY=0.5;entryDx=0;entryDy=0;exitX=0.5;exitY=0;exitDx=0;exitDy=0;" edge="1" parent="1" source="56" target="33">
                    <mxGeometry width="160" relative="1" as="geometry">
                        <mxPoint x="-332" y="916.7099999999999" as="sourcePoint"/>
                        <mxPoint x="-92" y="661.7099999999999" as="targetPoint"/>
                        <Array as="points">
                            <mxPoint x="-432" y="584.71"/>
                        </Array>
                    </mxGeometry>
                </mxCell>
                <mxCell id="27" value="NavHostController" style="swimlane;fontStyle=1;align=center;verticalAlign=top;childLayout=stackLayout;horizontal=1;startSize=26;horizontalStack=0;resizeParent=1;resizeParentMax=0;resizeLast=0;collapsible=1;marginBottom=0;fillColor=#a20025;strokeColor=#6F0000;fontColor=#ffffff;" parent="1" vertex="1">
                    <mxGeometry x="200" y="520" width="160" height="60" as="geometry"/>
                </mxCell>
                <mxCell id="29" value="" style="line;strokeWidth=1;fillColor=none;align=left;verticalAlign=middle;spacingTop=-1;spacingLeft=3;spacingRight=3;rotatable=0;labelPosition=right;points=[];portConstraint=eastwest;" parent="27" vertex="1">
                    <mxGeometry y="26" width="160" height="8" as="geometry"/>
                </mxCell>
                <mxCell id="81" style="edgeStyle=orthogonalEdgeStyle;rounded=0;orthogonalLoop=1;jettySize=auto;html=1;exitX=1;exitY=0.5;exitDx=0;exitDy=0;" parent="27" edge="1">
                    <mxGeometry relative="1" as="geometry">
                        <mxPoint x="-282" y="64.21000000000001" as="sourcePoint"/>
                        <mxPoint x="-282" y="64.21000000000001" as="targetPoint"/>
                    </mxGeometry>
                </mxCell>
                <mxCell id="30" value="super.NavController" style="text;strokeColor=none;fillColor=none;align=left;verticalAlign=top;spacingLeft=4;spacingRight=4;overflow=hidden;rotatable=0;points=[[0,0.5],[1,0.5]];portConstraint=eastwest;" parent="27" vertex="1">
                    <mxGeometry y="34" width="160" height="26" as="geometry"/>
                </mxCell>
                <mxCell id="86" value="" style="group" parent="1" vertex="1" connectable="0">
                    <mxGeometry x="428" y="410" width="166" height="312" as="geometry"/>
                </mxCell>
                <mxCell id="2" value="NavHostFragment&#10;" style="swimlane;fontStyle=1;align=center;verticalAlign=top;childLayout=stackLayout;horizontal=1;startSize=26;horizontalStack=0;resizeParent=1;resizeParentMax=0;resizeLast=0;collapsible=1;marginBottom=0;fillColor=#a20025;strokeColor=#6F0000;fontColor=#ffffff;" parent="86" vertex="1">
                    <mxGeometry x="6" y="110" width="160" height="86" as="geometry"/>
                </mxCell>
                <mxCell id="3" value="mNavController" style="text;strokeColor=none;fillColor=none;align=left;verticalAlign=top;spacingLeft=4;spacingRight=4;overflow=hidden;rotatable=0;points=[[0,0.5],[1,0.5]];portConstraint=eastwest;" parent="2" vertex="1">
                    <mxGeometry y="26" width="160" height="26" as="geometry"/>
                </mxCell>
                <mxCell id="4" value="" style="line;strokeWidth=1;fillColor=none;align=left;verticalAlign=middle;spacingTop=-1;spacingLeft=3;spacingRight=3;rotatable=0;labelPosition=right;points=[];portConstraint=eastwest;" parent="2" vertex="1">
                    <mxGeometry y="52" width="160" height="8" as="geometry"/>
                </mxCell>
                <mxCell id="5" value="getNavController" style="text;strokeColor=none;fillColor=none;align=left;verticalAlign=top;spacingLeft=4;spacingRight=4;overflow=hidden;rotatable=0;points=[[0,0.5],[1,0.5]];portConstraint=eastwest;" parent="2" vertex="1">
                    <mxGeometry y="60" width="160" height="26" as="geometry"/>
                </mxCell>
                <mxCell id="7" value="绑定" style="edgeStyle=orthogonalEdgeStyle;rounded=0;orthogonalLoop=1;jettySize=auto;html=1;entryX=0.463;entryY=-0.023;entryDx=0;entryDy=0;entryPerimeter=0;" parent="86" source="6" target="2" edge="1">
                    <mxGeometry relative="1" as="geometry"/>
                </mxCell>
                <mxCell id="6" value="Activity" style="html=1;" parent="86" vertex="1">
                    <mxGeometry x="25" width="110" height="50" as="geometry"/>
                </mxCell>
                <mxCell id="75" value="NavHost" style="swimlane;fontStyle=1;align=center;verticalAlign=top;childLayout=stackLayout;horizontal=1;startSize=26;horizontalStack=0;resizeParent=1;resizeParentMax=0;resizeLast=0;collapsible=1;marginBottom=0;" parent="86" vertex="1">
                    <mxGeometry y="260" width="160" height="52" as="geometry"/>
                </mxCell>
                <mxCell id="78" value="getNavController" style="text;strokeColor=none;fillColor=none;align=left;verticalAlign=top;spacingLeft=4;spacingRight=4;overflow=hidden;rotatable=0;points=[[0,0.5],[1,0.5]];portConstraint=eastwest;" parent="75" vertex="1">
                    <mxGeometry y="26" width="160" height="26" as="geometry"/>
                </mxCell>
                <mxCell id="79" value="Extends" style="endArrow=block;endSize=16;endFill=0;html=1;entryX=0.5;entryY=0;entryDx=0;entryDy=0;exitX=0.463;exitY=1;exitDx=0;exitDy=0;exitPerimeter=0;" parent="86" source="5" target="75" edge="1">
                    <mxGeometry width="160" relative="1" as="geometry">
                        <mxPoint x="-334" y="180" as="sourcePoint"/>
                        <mxPoint x="-174" y="180" as="targetPoint"/>
                    </mxGeometry>
                </mxCell>
                <mxCell id="80" style="edgeStyle=orthogonalEdgeStyle;rounded=0;orthogonalLoop=1;jettySize=auto;html=1;entryX=1;entryY=0.5;entryDx=0;entryDy=0;" parent="1" source="3" edge="1">
                    <mxGeometry x="200" y="410" as="geometry">
                        <mxPoint x="360" y="559" as="targetPoint"/>
                    </mxGeometry>
                </mxCell>
                <mxCell id="97" style="edgeStyle=orthogonalEdgeStyle;rounded=0;orthogonalLoop=1;jettySize=auto;html=1;entryX=1;entryY=0.5;entryDx=0;entryDy=0;" edge="1" parent="1" source="13" target="33">
                    <mxGeometry relative="1" as="geometry"/>
                </mxCell>
                <mxCell id="98" value="hold" style="edgeLabel;html=1;align=center;verticalAlign=middle;resizable=0;points=[];" vertex="1" connectable="0" parent="97">
                    <mxGeometry x="0.3639" y="1" relative="1" as="geometry">
                        <mxPoint as="offset"/>
                    </mxGeometry>
                </mxCell>
                <mxCell id="45" value="ActivityNavigator" style="swimlane;fontStyle=1;align=center;verticalAlign=top;childLayout=stackLayout;horizontal=1;startSize=26;horizontalStack=0;resizeParent=1;resizeParentMax=0;resizeLast=0;collapsible=1;marginBottom=0;" parent="1" vertex="1" collapsed="1">
                    <mxGeometry x="-522" y="31" width="130" height="26" as="geometry">
                        <mxRectangle x="20" y="170" width="160" height="34" as="alternateBounds"/>
                    </mxGeometry>
                </mxCell>
                <mxCell id="88" value="Extends" style="endArrow=block;endSize=16;endFill=0;html=1;exitX=1;exitY=0.5;exitDx=0;exitDy=0;entryX=0.25;entryY=0;entryDx=0;entryDy=0;" parent="1" source="45" target="106" edge="1">
                    <mxGeometry x="-360" y="31" width="160" as="geometry">
                        <mxPoint x="-250" y="81" as="sourcePoint"/>
                        <mxPoint x="-50" y="20" as="targetPoint"/>
                        <Array as="points">
                            <mxPoint x="-222" y="44"/>
                        </Array>
                    </mxGeometry>
                </mxCell>
                <mxCell id="102" value="FragmentNavigator" style="swimlane;fontStyle=1;align=center;verticalAlign=top;childLayout=stackLayout;horizontal=1;startSize=26;horizontalStack=0;resizeParent=1;resizeParentMax=0;resizeLast=0;collapsible=1;marginBottom=0;fillColor=#a20025;strokeColor=#6F0000;fontColor=#ffffff;" vertex="1" parent="1">
                    <mxGeometry x="-550" y="240" width="240" height="100" as="geometry"/>
                </mxCell>
                <mxCell id="103" value="mFragmentManager:FragmentManager" style="text;strokeColor=none;fillColor=none;align=left;verticalAlign=top;spacingLeft=4;spacingRight=4;overflow=hidden;rotatable=0;points=[[0,0.5],[1,0.5]];portConstraint=eastwest;" vertex="1" parent="102">
                    <mxGeometry y="26" width="240" height="26" as="geometry"/>
                </mxCell>
                <mxCell id="104" value="" style="line;strokeWidth=1;fillColor=none;align=left;verticalAlign=middle;spacingTop=-1;spacingLeft=3;spacingRight=3;rotatable=0;labelPosition=right;points=[];portConstraint=eastwest;" vertex="1" parent="102">
                    <mxGeometry y="52" width="240" height="8" as="geometry"/>
                </mxCell>
                <mxCell id="105" value="createDestination&#10;navigate" style="text;strokeColor=none;fillColor=none;align=left;verticalAlign=top;spacingLeft=4;spacingRight=4;overflow=hidden;rotatable=0;points=[[0,0.5],[1,0.5]];portConstraint=eastwest;" vertex="1" parent="102">
                    <mxGeometry y="60" width="240" height="40" as="geometry"/>
                </mxCell>
                <mxCell id="106" value="Navigator" style="swimlane;fontStyle=1;align=center;verticalAlign=top;childLayout=stackLayout;horizontal=1;startSize=26;horizontalStack=0;resizeParent=1;resizeParentMax=0;resizeLast=0;collapsible=1;marginBottom=0;fillColor=#a20025;strokeColor=#6F0000;fontColor=#ffffff;" vertex="1" parent="1">
                    <mxGeometry x="-282" y="70" width="240" height="70" as="geometry"/>
                </mxCell>
                <mxCell id="109" value="createDestination&#10;navigate" style="text;strokeColor=none;fillColor=none;align=left;verticalAlign=top;spacingLeft=4;spacingRight=4;overflow=hidden;rotatable=0;points=[[0,0.5],[1,0.5]];portConstraint=eastwest;" vertex="1" parent="106">
                    <mxGeometry y="26" width="240" height="44" as="geometry"/>
                </mxCell>
                <mxCell id="110" value="Extends" style="endArrow=block;endSize=16;endFill=0;html=1;exitX=1;exitY=0.5;exitDx=0;exitDy=0;entryX=0.342;entryY=0.99;entryDx=0;entryDy=0;entryPerimeter=0;" edge="1" parent="1" source="105" target="109">
                    <mxGeometry width="160" relative="1" as="geometry">
                        <mxPoint x="-270" y="420" as="sourcePoint"/>
                        <mxPoint x="-110" y="420" as="targetPoint"/>
                        <Array as="points">
                            <mxPoint x="-200" y="320"/>
                        </Array>
                    </mxGeometry>
                </mxCell>
                <mxCell id="115" style="edgeStyle=orthogonalEdgeStyle;rounded=0;orthogonalLoop=1;jettySize=auto;html=1;exitX=0;exitY=0.5;exitDx=0;exitDy=0;entryX=0.25;entryY=0;entryDx=0;entryDy=0;" edge="1" parent="1" source="15" target="82">
                    <mxGeometry relative="1" as="geometry"/>
                </mxCell>
                <mxCell id="116" value="hold" style="edgeLabel;html=1;align=center;verticalAlign=middle;resizable=0;points=[];" vertex="1" connectable="0" parent="115">
                    <mxGeometry x="0.4337" y="5" relative="1" as="geometry">
                        <mxPoint as="offset"/>
                    </mxGeometry>
                </mxCell>
                <mxCell id="120" style="edgeStyle=orthogonalEdgeStyle;rounded=0;orthogonalLoop=1;jettySize=auto;html=1;entryX=0;entryY=0.5;entryDx=0;entryDy=0;" edge="1" parent="1" source="117" target="83">
                    <mxGeometry relative="1" as="geometry"/>
                </mxCell>
                <mxCell id="117" value="Navigation.xml" style="html=1;" vertex="1" parent="1">
                    <mxGeometry x="90" y="970" width="110" height="50" as="geometry"/>
                </mxCell>
            </root>
        </mxGraphModel>
    </diagram>
</mxfile>